    <svg viewBox="0 0 1600 900" preserveAspectRatio="xMidYMid slice" xmlns="http://www.w3.org/2000/svg">
      <defs>
        <!-- sky gradient: pale peach → cream → bg -->
        <linearGradient id="sky" x1="0" y1="0" x2="0" y2="1">
          <stop offset="0%"   stop-color="#F3DAC5"/>
          <stop offset="35%"  stop-color="#F6E2D0"/>
          <stop offset="70%"  stop-color="#F9EBD9"/>
          <stop offset="100%" stop-color="#FBFAF7"/>
        </linearGradient>

        <!-- subtle vignette -->
        <radialGradient id="vignette" cx="50%" cy="40%" r="75%">
          <stop offset="60%" stop-color="rgba(0,0,0,0)"/>
          <stop offset="100%" stop-color="rgba(190,120,80,0.08)"/>
        </radialGradient>

        <!-- grain -->
        <filter id="grain" x="0" y="0" width="100%" height="100%">
          <feTurbulence type="fractalNoise" baseFrequency="0.9" numOctaves="2" seed="5"/>
          <feColorMatrix values="0 0 0 0 0.2
                                 0 0 0 0 0.1
                                 0 0 0 0 0.05
                                 0 0 0 0.10 0"/>
          <feComposite in2="SourceGraphic" operator="in"/>
        </filter>

        <!-- soft sun glow -->
        <radialGradient id="sun" cx="50%" cy="50%" r="50%">
          <stop offset="0%"  stop-color="#FFE9C9" stop-opacity="0.95"/>
          <stop offset="60%" stop-color="#FFE9C9" stop-opacity="0.25"/>
          <stop offset="100%" stop-color="#FFE9C9" stop-opacity="0"/>
        </radialGradient>

        <!-- ─── Icon library (all line drawings, currentColor) ─── -->
        <!-- bowl with steam -->
        <symbol id="i-bowl" viewBox="0 0 40 40">
          <path d="M14 8 Q12 4 14 1" stroke="currentColor" stroke-width="1.5" stroke-linecap="round" fill="none"/>
          <path d="M20 7 Q22 3 20 0" stroke="currentColor" stroke-width="1.5" stroke-linecap="round" fill="none"/>
          <path d="M26 8 Q28 4 26 1" stroke="currentColor" stroke-width="1.5" stroke-linecap="round" fill="none"/>
          <path d="M5 16 H35 L31 32 Q29 36 20 36 Q11 36 9 32 Z" stroke="currentColor" stroke-width="1.8" stroke-linejoin="round" fill="none"/>
          <line x1="5" y1="20" x2="35" y2="20" stroke="currentColor" stroke-width="1.4"/>
        </symbol>

        <!-- tea cup with steam (chai) -->
        <symbol id="i-cup" viewBox="0 0 40 40">
          <path d="M16 8 Q14 4 16 0" stroke="currentColor" stroke-width="1.5" stroke-linecap="round" fill="none"/>
          <path d="M24 8 Q26 4 24 0" stroke="currentColor" stroke-width="1.5" stroke-linecap="round" fill="none"/>
          <path d="M10 13 H29 L27 32 Q26 36 20 36 Q14 36 13 32 Z" stroke="currentColor" stroke-width="1.8" stroke-linejoin="round" fill="none"/>
          <path d="M29 17 Q35 18 34 24 Q33 28 28 27" stroke="currentColor" stroke-width="1.8" fill="none"/>
        </symbol>

        <!-- fork & knife -->
        <symbol id="i-fnk" viewBox="0 0 40 40">
          <line x1="14" y1="6"  x2="14" y2="34" stroke="currentColor" stroke-width="1.8" stroke-linecap="round"/>
          <line x1="11" y1="6"  x2="11" y2="14" stroke="currentColor" stroke-width="1.4" stroke-linecap="round"/>
          <line x1="17" y1="6"  x2="17" y2="14" stroke="currentColor" stroke-width="1.4" stroke-linecap="round"/>
          <path d="M22 6 Q22 14 26 16 V34" stroke="currentColor" stroke-width="1.8" stroke-linecap="round" fill="none"/>
          <path d="M30 6 Q30 14 26 16" stroke="currentColor" stroke-width="1.6" fill="none"/>
        </symbol>

        <!-- plate (top view) -->
        <symbol id="i-plate" viewBox="0 0 40 40">
          <circle cx="20" cy="20" r="15" stroke="currentColor" stroke-width="1.8" fill="none"/>
          <circle cx="20" cy="20" r="10" stroke="currentColor" stroke-width="1.2" fill="none"/>
          <circle cx="20" cy="20" r="2.4" fill="currentColor"/>
        </symbol>

        <!-- receipt -->
        <symbol id="i-rcpt" viewBox="0 0 40 40">
          <path d="M10 4 H30 V36 L26 33 L22 36 L18 33 L14 36 L10 33 Z" stroke="currentColor" stroke-width="1.7" stroke-linejoin="round" fill="none"/>
          <line x1="14" y1="11" x2="26" y2="11" stroke="currentColor" stroke-width="1.4"/>
          <line x1="14" y1="17" x2="26" y2="17" stroke="currentColor" stroke-width="1.4"/>
          <line x1="14" y1="23" x2="22" y2="23" stroke="currentColor" stroke-width="1.4"/>
        </symbol>

        <!-- QR -->
        <symbol id="i-qr" viewBox="0 0 40 40">
          <rect x="5"  y="5"  width="11" height="11" stroke="currentColor" stroke-width="1.8" fill="none"/>
          <rect x="8.5" y="8.5" width="4" height="4" fill="currentColor"/>
          <rect x="24" y="5"  width="11" height="11" stroke="currentColor" stroke-width="1.8" fill="none"/>
          <rect x="27.5" y="8.5" width="4" height="4" fill="currentColor"/>
          <rect x="5"  y="24" width="11" height="11" stroke="currentColor" stroke-width="1.8" fill="none"/>
          <rect x="8.5" y="27.5" width="4" height="4" fill="currentColor"/>
          <rect x="21" y="21" width="3" height="3" fill="currentColor"/>
          <rect x="26" y="21" width="3" height="3" fill="currentColor"/>
          <rect x="31" y="21" width="3" height="3" fill="currentColor"/>
          <rect x="21" y="26" width="3" height="3" fill="currentColor"/>
          <rect x="31" y="26" width="3" height="3" fill="currentColor"/>
          <rect x="21" y="31" width="3" height="3" fill="currentColor"/>
          <rect x="26" y="31" width="3" height="3" fill="currentColor"/>
          <rect x="31" y="31" width="3" height="3" fill="currentColor"/>
        </symbol>

        <!-- rupee sign -->
        <symbol id="i-inr" viewBox="0 0 40 40">
          <path d="M12 9 H30 M12 16 H30 M12 23 H22 Q15 23 14 17 M14 17 Q15 29 30 36"
                stroke="currentColor" stroke-width="2.2" stroke-linecap="round" stroke-linejoin="round" fill="none"/>
        </symbol>

        <!-- chat bubble (agent) -->
        <symbol id="i-chat" viewBox="0 0 40 40">
          <path d="M5 12 Q5 5 12 5 H28 Q35 5 35 12 V22 Q35 28 28 28 H20 L13 34 V28 H12 Q5 28 5 22 Z"
                stroke="currentColor" stroke-width="1.8" stroke-linejoin="round" fill="none"/>
          <circle cx="15" cy="16.5" r="1.5" fill="currentColor"/>
          <circle cx="20" cy="16.5" r="1.5" fill="currentColor"/>
          <circle cx="25" cy="16.5" r="1.5" fill="currentColor"/>
        </symbol>

        <!-- sparkle (AI) -->
        <symbol id="i-spk" viewBox="0 0 40 40">
          <path d="M20 4 L22.5 17.5 L36 20 L22.5 22.5 L20 36 L17.5 22.5 L4 20 L17.5 17.5 Z"
                stroke="currentColor" stroke-width="1.5" stroke-linejoin="round" fill="none"/>
        </symbol>

        <!-- service bell -->
        <symbol id="i-bell" viewBox="0 0 40 40">
          <path d="M7 28 Q7 12 20 12 Q33 12 33 28 Z" stroke="currentColor" stroke-width="1.8" stroke-linejoin="round" fill="none"/>
          <circle cx="20" cy="8" r="2.2" stroke="currentColor" stroke-width="1.6" fill="none"/>
          <line x1="4" y1="30" x2="36" y2="30" stroke="currentColor" stroke-width="1.8" stroke-linecap="round"/>
        </symbol>

        <!-- leaf -->
        <symbol id="i-leaf" viewBox="0 0 40 40">
          <path d="M6 34 Q6 8 34 6 Q34 30 10 34 Z" stroke="currentColor" stroke-width="1.7" stroke-linejoin="round" fill="none"/>
          <path d="M9 31 Q20 20 31 9" stroke="currentColor" stroke-width="1.3" fill="none"/>
        </symbol>

        <!-- bar chart -->
        <symbol id="i-chart" viewBox="0 0 40 40">
          <line x1="6" y1="34" x2="34" y2="34" stroke="currentColor" stroke-width="1.8" stroke-linecap="round"/>
          <rect x="9"  y="22" width="5" height="10" stroke="currentColor" stroke-width="1.6" fill="none"/>
          <rect x="17" y="14" width="5" height="18" stroke="currentColor" stroke-width="1.6" fill="none"/>
          <rect x="25" y="8"  width="5" height="24" stroke="currentColor" stroke-width="1.6" fill="none"/>
        </symbol>

        <!-- pizza slice -->
        <symbol id="i-pizza" viewBox="0 0 40 40">
          <path d="M20 4 L36 34 H4 Z" stroke="currentColor" stroke-width="1.8" stroke-linejoin="round" fill="none"/>
          <circle cx="20" cy="18" r="1.8" fill="currentColor"/>
          <circle cx="15" cy="26" r="1.6" fill="currentColor"/>
          <circle cx="25" cy="26" r="1.6" fill="currentColor"/>
        </symbol>

        <!-- spoon -->
        <symbol id="i-spoon" viewBox="0 0 40 40">
          <ellipse cx="20" cy="11" rx="8" ry="9" stroke="currentColor" stroke-width="1.8" fill="none"/>
          <line x1="20" y1="20" x2="20" y2="36" stroke="currentColor" stroke-width="1.8" stroke-linecap="round"/>
        </symbol>

        <!-- ticket / order chit -->
        <symbol id="i-tkt" viewBox="0 0 40 40">
          <path d="M5 12 Q5 8 9 8 H31 Q35 8 35 12 V14 Q31 14 31 18 Q31 22 35 22 V28 Q35 32 31 32 H9 Q5 32 5 28 V22 Q9 22 9 18 Q9 14 5 14 Z"
                stroke="currentColor" stroke-width="1.7" stroke-linejoin="round" fill="none"/>
          <line x1="13" y1="20" x2="27" y2="20" stroke="currentColor" stroke-width="1.4" stroke-dasharray="2 2"/>
        </symbol>

        <!-- card -->
        <symbol id="i-card" viewBox="0 0 40 40">
          <rect x="5" y="10" width="30" height="20" rx="3" stroke="currentColor" stroke-width="1.8" fill="none"/>
          <line x1="5" y1="16" x2="35" y2="16" stroke="currentColor" stroke-width="1.6"/>
          <line x1="9" y1="24" x2="17" y2="24" stroke="currentColor" stroke-width="1.4"/>
        </symbol>

        <!-- table with chairs (top view) -->
        <symbol id="i-table" viewBox="0 0 40 40">
          <rect x="12" y="14" width="16" height="12" rx="2" stroke="currentColor" stroke-width="1.6" fill="none"/>
          <rect x="14" y="8"  width="12" height="4" rx="1" stroke="currentColor" stroke-width="1.4" fill="none"/>
          <rect x="14" y="28" width="12" height="4" rx="1" stroke="currentColor" stroke-width="1.4" fill="none"/>
          <rect x="6"  y="16" width="4" height="8"  rx="1" stroke="currentColor" stroke-width="1.4" fill="none"/>
          <rect x="30" y="16" width="4" height="8"  rx="1" stroke="currentColor" stroke-width="1.4" fill="none"/>
        </symbol>
      </defs>

      <!-- sky -->
      <rect width="1600" height="900" fill="url(#sky)"/>
      <!-- soft sun behind clouds -->
      <circle cx="1180" cy="170" r="260" fill="url(#sun)"/>

      <!-- ─── Far layer (smallest, most transparent) ─── -->
      <g color="#B84A2E" opacity="0.18" stroke-width="0.9">
        <use href="#i-bowl"   x="60"   y="90"  width="30" height="30"/>
        <use href="#i-spk"    x="190"  y="60"  width="26" height="26"/>
        <use href="#i-chat"   x="320"  y="120" width="28" height="28"/>
        <use href="#i-inr"    x="460"  y="70"  width="26" height="26"/>
        <use href="#i-cup"    x="590"  y="100" width="28" height="28"/>
        <use href="#i-leaf"   x="730"  y="50"  width="30" height="30"/>
        <use href="#i-rcpt"   x="860"  y="110" width="28" height="28"/>
        <use href="#i-plate"  x="980"  y="60"  width="30" height="30"/>
        <use href="#i-qr"     x="1100" y="100" width="28" height="28"/>
        <use href="#i-bell"   x="1240" y="70"  width="28" height="28"/>
        <use href="#i-fnk"    x="1370" y="110" width="26" height="26"/>
        <use href="#i-spk"    x="1490" y="60"  width="26" height="26"/>

        <use href="#i-chat"   x="120"  y="200" width="30" height="30"/>
        <use href="#i-card"   x="260"  y="240" width="28" height="28"/>
        <use href="#i-pizza"  x="420"  y="210" width="30" height="30"/>
        <use href="#i-chart"  x="540"  y="250" width="28" height="28"/>
        <use href="#i-spoon"  x="660"  y="200" width="26" height="26"/>
        <use href="#i-tkt"    x="780"  y="240" width="30" height="30"/>
        <use href="#i-bowl"   x="900"  y="200" width="28" height="28"/>
        <use href="#i-spk"    x="1030" y="240" width="24" height="24"/>
        <use href="#i-cup"    x="1150" y="200" width="28" height="28"/>
        <use href="#i-table"  x="1280" y="240" width="30" height="30"/>
        <use href="#i-inr"    x="1410" y="210" width="26" height="26"/>
        <use href="#i-leaf"   x="1530" y="240" width="28" height="28"/>
      </g>

      <!-- ─── Mid layer ─── -->
      <g color="#B84A2E" opacity="0.34" stroke-width="1.4">
        <use href="#i-bowl"   x="60"   y="340" width="46" height="46"/>
        <use href="#i-chat"   x="200"  y="370" width="48" height="48"/>
        <use href="#i-rcpt"   x="340"  y="320" width="46" height="46"/>
        <use href="#i-spk"    x="480"  y="380" width="42" height="42"/>
        <use href="#i-cup"    x="600"  y="340" width="46" height="46"/>
        <use href="#i-qr"     x="730"  y="380" width="46" height="46"/>
        <use href="#i-inr"    x="870"  y="320" width="44" height="44"/>
        <use href="#i-plate"  x="1000" y="370" width="48" height="48"/>
        <use href="#i-bell"   x="1140" y="330" width="46" height="46"/>
        <use href="#i-fnk"    x="1270" y="380" width="44" height="44"/>
        <use href="#i-table"  x="1400" y="340" width="46" height="46"/>
        <use href="#i-leaf"   x="1520" y="380" width="46" height="46"/>

        <use href="#i-chart"  x="120"  y="480" width="48" height="48"/>
        <use href="#i-pizza"  x="270"  y="510" width="48" height="48"/>
        <use href="#i-tkt"    x="410"  y="470" width="50" height="50"/>
        <use href="#i-card"   x="550"  y="520" width="48" height="48"/>
        <use href="#i-spoon"  x="690"  y="480" width="46" height="46"/>
        <use href="#i-spk"    x="820"  y="510" width="44" height="44"/>
        <use href="#i-bowl"   x="950"  y="470" width="48" height="48"/>
        <use href="#i-cup"    x="1090" y="520" width="46" height="46"/>
        <use href="#i-chat"   x="1230" y="470" width="50" height="50"/>
        <use href="#i-rcpt"   x="1370" y="520" width="46" height="46"/>
        <use href="#i-inr"    x="1500" y="470" width="44" height="44"/>
      </g>

      <!-- thin connecting lines (subtle network) -->
      <g stroke="#B84A2E" stroke-width="0.7" opacity="0.18" fill="none">
        <path d="M 230 90  Q 380 60 510 90"/>
        <path d="M 620 120 Q 760 90 880 130"/>
        <path d="M 980 80  Q 1120 110 1260 90"/>
        <path d="M 80 240  Q 220 270 350 230"/>
        <path d="M 470 250 Q 600 220 720 250"/>
        <path d="M 840 240 Q 980 270 1100 230"/>
        <path d="M 1180 260 Q 1320 230 1450 260"/>
      </g>

      <!-- ─── Foreground (largest, more presence) ─── -->
      <g color="#A33E25" opacity="0.55" stroke-width="1.7">
        <use href="#i-bowl"   x="30"   y="600" width="74" height="74"/>
        <use href="#i-chat"   x="180"  y="640" width="76" height="76"/>
        <use href="#i-rcpt"   x="340"  y="600" width="72" height="72"/>
        <use href="#i-spk"    x="490"  y="640" width="66" height="66"/>
        <use href="#i-cup"    x="630"  y="600" width="74" height="74"/>
        <use href="#i-qr"     x="780"  y="640" width="74" height="74"/>
        <use href="#i-inr"    x="930"  y="600" width="70" height="70"/>
        <use href="#i-plate"  x="1070" y="640" width="76" height="76"/>
        <use href="#i-bell"   x="1230" y="600" width="74" height="74"/>
        <use href="#i-fnk"    x="1380" y="640" width="68" height="68"/>
        <use href="#i-leaf"   x="1510" y="600" width="74" height="74"/>
      </g>

      <!-- vignette + grain -->
      <rect width="1600" height="900" fill="url(#vignette)"/>
      <rect width="1600" height="900" fill="#000" filter="url(#grain)" opacity="0.55"/>
    </svg>
